# xmcd CD database file
#
# Track frame offsets:
#	150
#	17237
#	46862
#	63362
#	83387
#	96062
#	114062
#	138962
#	158162
#	176837
#	197087
#	215762
#	233012
#	252737
#	269987
#	290912
#
# Disc length: 4165 seconds
#
# Revision: 1
# Processed by: cddbd v1.5.2PL0 Copyright (c) Steve Scherf et al.
# Submitted via: CDex 1.51
#
DISCID=e9104310
DTITLE=Various Artist - הפרופסור הדיגיטלי 2
DYEAR=1990
DGENRE=90's
TTITLE0=Snap! - The Power (Remix)
TTITLE1=Black Box - Ride on Time (Extended)
TTITLE2=49ers - Touch Me
TTITLE3=Rob 'N Raz feat. Leila K - Got to Get
TTITLE4=Various Artist - The Brits 1990
TTITLE5=Guru Josh - Infinity
TTITLE6=Adamski - Killer
TTITLE7=Electronic - Getting Away with it (Radio Edit)
TTITLE8=Sweet Sensation - Love Child
TTITLE9=Sand Party - Lambada Festival
TTITLE10=Milli Vanilli - Blame it on the Rain
TTITLE11=Linear - Sending All My Love
TTITLE12=Bell Biv Devoe - Poison
TTITLE13=The Family Stand - Ghetto Heaven
TTITLE14=Laid Back - Bakerman
TTITLE15=Alanah Miles - Black Velvet
EXTD=YEAR: 1990
EXTT0=
EXTT1=
EXTT2=
EXTT3=
EXTT4=
EXTT5=
EXTT6=
EXTT7=
EXTT8=
EXTT9=
EXTT10=
EXTT11=
EXTT12=
EXTT13=
EXTT14=
EXTT15=
PLAYORDER=
